<svg xmlns="http://www.w3.org/2000/svg" width="223" height="138"><path fill="#034F76" d="M0 0h223v138H0z"/><path fill="#F1FAFA" d="m109.5 20.875 2.09-.012c5.157.01 5.157.01 7.41 1.137v6l1.688.262C126.41 29.316 131.64 30.975 136 35c.996 1.742.996 1.742 1 4a67 67 0 0 1-4.437 6.75l-1.315 1.824A441 441 0 0 1 128 52l-12-4c-8.302-.697-15.239-.163-21.75 5.313-6.303 7.529-7.797 13.117-7.598 22.804.602 6.717 3.047 11.582 7.785 16.32L97 94l2.563 1.75c6.658 2.421 13.597 1.618 20.437.25l1-13h-15V66h34c.184 6.035.343 12.061.44 18.097q.06 3.078.164 6.154c.097 2.952.142 5.901.177 8.854l.125 2.772c.002 2.607-.082 4.648-.906 7.123-2.393 2.325-4.957 3.68-8 5l-3.117 1.363-2.758.95-2.805.988C121 118 121 118 119 118l-.375 2.438L118 123c-2.956 1.478-5.65 1.17-8.937 1.188l-3.778.042C102 124 102 124 99 122l-.281-1.95c-.573-2.387-.573-2.387-3.563-3.507l-3.656-1.356c-13.017-5.2-18.692-12.533-25.375-24.562-4.147-9.677-3.881-25.026-.5-34.875C71.214 43.357 79.463 34.433 92 29c2.438-.64 4.47-.888 7-1l.375-2.937L100 22c3.034-1.517 6.176-1.144 9.5-1.125"/><path fill="#ECF9F9" d="M199 22c3.429 2.02 6.208 4.417 8 8 .763 6.838.17 11.478-4 17-3.42 2.945-6.485 3.521-11 3.367-3.635-.667-6.424-2.791-9-5.367-5.659-.545-10.395-.714-15 3-1.363 1.16-1.363 1.16-1.437 4.313.032 3.773.032 3.773 2.683 5.667 4.967 3.033 10.717 4.381 16.254 6.02 16.078 4.758 16.078 4.758 22.313 12.063l1.769 2.035c4.197 5.63 3.267 15.17 2.418 21.902-2.232 6.83-6.47 10.988-12.46 14.746-8.453 4.174-15.271 4.694-24.583 4.781-5.497.129-9.102.647-13.957 3.473-4.31.88-7.371.308-11.312-1.625-4.429-3.914-5.854-7.501-6.25-13.312.125-4.892 1.697-7.34 5.054-10.786 3.154-2.672 5.958-2.657 9.953-2.644 2.948.423 4.846 1.406 7.43 2.867 5.381 2.955 10.077 3.425 16.125 2.5 2.549-1.172 4.063-2.063 6-4 .511-4.546.511-4.546-1.148-8.598-2.449-1.854-4.798-2.556-7.735-3.453l-3.539-1.119q-3.666-1.131-7.336-2.25C157.85 77.281 149.686 73.596 144 64c-2.252-6.654-2.37-16.001.5-22.437 3.98-6.499 10.185-11.288 17.293-13.918 7.273-1.462 14.83-.918 22.207-.645v-2c4.357-3.776 9.524-4.082 15-3"/><path fill="#16566C" d="m196.063 17.875 2.597-.008C201 18 201 18 204 19v3l3 1c1.284 2.569 1.33 4.766 1.563 7.625l.253 3.04L209 36l2-2c.074 3.343.065 5.804-1 9l-.25 2.063C209 47 209 47 206.75 48L204 49l-2.125 2.125c-4.35 2.837-8.811 2.524-13.875 1.875-3.316-1.251-3.948-1.922-6-5-2.098-.477-2.098-.477-4.437-.375l-2.372-.023c-2.634.479-3.517 1.364-5.191 3.398.703 2.51.703 2.51 2 5 2.041.887 2.041.887 4 1v4c-4.386-.501-6.99-1.733-10-5-.562-3.5-.562-3.5 0-7 2.219-2.907 3.52-3.84 7-5 4.936-.51 8.75-.807 13 1.938L188 48c3.199 1.6 6.521 1.361 10 1 3.395-1.358 4.704-2.582 6.813-5.562 1.584-4.586 2.042-8.64 1.187-13.438-1.694-3.118-3.78-5.39-7-7-5.29-.403-10.213-.553-15 2v2l-3.805.078c-11.584.346-21.901.825-30.722 9.25-5.515 6.26-6.052 12.152-5.797 20.39.63 6.387 3.09 10.468 7.324 15.282 7.829 5.428 17.384 7.875 26.433 10.464 8.895 2.634 8.895 2.634 11.567 6.536.5 3.5.5 3.5 0 7-2.219 2.907-3.52 3.84-7 5-7.41.863-12.136-.284-18.586-3.867-3.834-1.8-7.299-2.138-11.414-1.133-3.058 1.747-5.4 3.799-7 7-.23 2.371-.411 4.747-.562 7.125l-.254 3.883L144 117l-3-4-3.437 1.813c-3.052 1.558-5.946 2.612-9.25 3.5-3.611 1.093-4.889 2.11-6.75 5.374-1.114 1.856-1.114 1.856-2.563 3.313-4.53.915-8.647.451-13-1-2.638.394-2.638.394-5 1v-3l3.21-.184 4.165-.254 2.117-.119c3.882-.186 3.882-.186 7.508-1.443l.242-1.906C119 118 119 118 121.695 116.656l3.43-1.156c7.476-2.277 7.476-2.277 13.875-6.5 1.046-3.25.955-6.406.902-9.797l.038-2.875c.031-3.027.015-6.051-.002-9.078q.02-3.08.048-6.16c.047-5.032.029-10.057.014-15.09h-34v17h15v13c-6.952 2.317-13.5 3.575-20.602 1.09-6.342-3.299-11.247-7.972-13.89-14.778-1.714-7.805-1.953-16.793 2.363-23.742L90 57l1.813-2.75c5.08-5.225 11.005-7.347 18.187-7.625 6.695.018 12.066 2.475 18 5.375.264-.741.529-1.482.8-2.246 1.506-3.457 3.638-5.93 6.055-8.79 1.365-1.897 1.365-1.897.918-4.1-.896-2.16-2.02-3.34-3.773-4.864 4.449-.393 7.142.847 11 3v2h2l.563-1.812c2.133-3.246 4.86-3.91 8.437-5.188h2l-1-3c8.506-2.78 16.022-4.454 25.04-4.629 3.307-.414 4.446-1.287 6.96-3.371 3.028-1.064 5.868-1.135 9.063-1.125"/><path fill="#EFF6F9" d="M47 21c2.95-.22 5.684-.28 8.625-.187l2.43.04c1.982.036 3.963.09 5.945.147l1 3.75c1.337 3.677 2.679 5.036 6.188 6.75A83 83 0 0 0 75 33l-1.137 1.25-1.55 1.75-1.7 1.91c-1.629 2.11-2.53 4.106-3.613 6.528-1.2 2.042-1.2 2.042-3 3.562-3.584.414-6.948.242-10.547.035-6.084-.062-9.525 2.44-14.14 6.09-4.377 5.44-8.207 11.606-7.668 18.809C32.855 79.967 34.716 86.919 40 92c5.764 3.7 10.436 5.063 17.25 4.438 6.037-.081 6.037-.081 9.02 2.609 1.753 2.582 3.26 5.201 4.73 7.953a198 198 0 0 0 4 5l-3.812 1c-2.666.969-3.877 1.464-5.317 3.945-.768 2.156-.768 2.156-1.3 4.313L64 123c-2.972 1.486-5.696 1.132-9 1.125l-3.812.008C48 124 48 124 46 123l-1.125-3.812c-1.245-3.552-2.477-4.993-5.812-6.75-3.139-1.458-4.802-1.57-8.063-.438a206 206 0 0 0-5 2 403 403 0 0 1-5.562-5.187l-1.616-1.463C17.31 105.895 17.31 105.895 15 103c.093-3.077.825-4.668 2.25-7.375C18.358 91.747 16.7 89.533 15 86v-3l-3.937-.437C7.124 82.125 7.124 82.125 6 81c-.073-2.863-.092-5.7-.062-8.562l.013-2.444Q5.971 66.997 6 64l1.898-.41c2.544-.67 4.767-1.373 7.102-2.59 1.825-3.942 2.48-7.672 2-12l-2-3c.095-3.593.882-4.869 3.313-7.562L21 36l1.938-2.375C25 32 25 32 28.063 32.188c1.994.551 3.974 1.158 5.937 1.812 2.258-.754 2.258-.754 4.563-1.937C42.82 30 42.82 30 45 30l-.125-2.812C45 24 45 24 47 21"/><path fill="#054272" d="m67 48-2 8h-2l.487 2.188c.484 2.655.667 5.103.724 7.796l.086 2.836q.078 2.907.133 5.813c.384 11.698 4.33 21.136 11.882 30.117 5.519 4.62 10.988 8.034 17.688 10.688 2.8 1.195 2.8 1.195 5 2.562 1.188 3.813 1.188 3.813 1 7h-3l-.625-2.437L95 120c-2.858-.685-2.858-.685-6-1-3.687-1.76-5.538-3.147-7-7h-4l-.687 1.813C76 116 76 116 73.687 117.313c-2.723 1.71-3.43 2.669-5.062 5.312-1.865 2.71-2.297 3.27-5.562 4.313-1.354.057-2.709.069-4.063.062l-3.492.145c-7.325.202-7.325.202-10.508-.145-2.152-3.228-2.2-4.284-2-8l-5-1 2-1-2-2c-2.54.091-2.54.091-5 1l-2 3c-2.625.188-2.625.188-5 0v-3l-5-2v-3h-5l-.187-2.187c-1.058-3.66-3.019-5.305-5.813-7.813l2-1v-5l2 1v-6h-2v-3H5c-.922-2.766-1.118-4.383-1.098-7.23l.01-2.432.026-2.525.013-2.561Q3.971 69.126 4 66h1l1 14 4.25.875c3.096 1.017 4.435 1.67 6.309 4.375 2.835 6.594 2.835 6.594 1.586 10.258L17 98c-1.07 2.432-1.07 2.432-1 5 2.073 2.801 2.073 2.801 4.938 5.313l2.84 2.675L26 113l2.25-.937c6.032-2.331 6.032-2.331 9.04-1.208.77.44 1.54.88 2.335 1.332l2.352 1.293c2.275 1.71 3.088 2.85 4.023 5.52v4q3.938.04 7.875.063l2.262.025c4.061.119 4.061.119 7.863-1.088.442-1.298.83-2.614 1.188-3.937.75-2.184.75-2.184 1.812-4.063 3.688-1.5 3.688-1.5 7-2l-1.172-1.285C69.261 106.697 66.518 102.746 64 98l-2.527.14c-9.075.292-14.73-1.084-22.285-5.953-5.986-5.985-7.706-12.919-8.626-21.062.18-6.5 3.781-12.171 7.875-17C47.722 46.427 55.488 45.998 67 48m17 70 3 1Z"/><path fill="#EDF7F9" d="M108.688 27.563c4.074.538 5.486 1.801 8.183 4.773C118 34 118 34 118.438 36.813 118 39 118 39 117 40q-3.5.062-7 0v4l-4-1v-2c-5.079-1.187-8.822-1.593-13.437 1.125C89.407 44.368 88.028 46.197 87 50l-2 2h-4c-1.922 4.583-3.457 9.28-5 14h4c2.489 4.685 1.857 7.944 1 13l-4 1c2.08 7.095 3.365 11.188 10 15l1.438 3c2.009 3.858 4.617 5.465 8.562 7 2.37.547 4.565.801 7 1v-2h-5v-1h13l-1 9h2v-3h4v-2h-4v-2l3.5.188c4.99.267 7.187-1.196 12.5-3.188l1-23-3-1v-3c-1.626.114-3.25.242-4.875.375-.905.07-1.81.14-2.742.21-2.562.21-2.562.21-4.383 2.415-2.625-.375-2.625-.375-5-1-.625-2.375-.625-2.375-1-5l2-2c4.556.556 4.556.556 6 2 4.38.276 8.7.271 13-.625l2-.375c2 2 2 2 2.188 4.563C134 78 134 78 133 79a104 104 0 0 0-.316 5.348l-.127 3.271-.12 3.444-.13 3.455q-.16 4.24-.307 8.482-2.4 1.259-4.812 2.5l-2.708 1.406C122 108 122 108 119 108v6c-2.187 1.125-2.187 1.125-5 2-2.625-.875-2.625-.875-5-2h-3v2l-6 1v5l-.59-1.824c-2.054-3.17-4.473-3.678-7.972-4.989C78.058 109.804 70.676 101.245 65 88c-1.202-5.099-1.22-10.036-1.25-15.25l-.062-2.738C63.652 63.804 64.66 58.749 67 53c.943 3.416 1.08 6.451 1 10l6 2 .586-2.082.789-2.73.773-2.708C77 55 77 55 79 52c.394-2.324.735-4.658 1-7l3.375-1.187C92.545 40.307 98.955 36.912 105 29c1-1 1-1 3.688-1.437"/><path fill="#065477" d="M142 40c.098 6.152.098 6.152 0 8l-1 1c-.143 4.138-.024 7.832.563 11.938L142 64c-1.696 1.696-3.805 1.132-6.067 1.138l-2.12-.013-2.17-.004c-5.849-.042-11.637-.434-17.46-1-3.835-.24-3.835-.24-10.183.879l1 19h14c.37 8.498.37 8.498-1.324 10.8C116 96 116 96 113 95.876a116 116 0 0 1-4-.875l-2.797-.605C97.695 92.358 97.695 92.358 95 88l-5 1c-4.63-7.627-4.967-15.25-4-24 .912-3.057 2.145-5.42 4-8l1.813-2.75c5.08-5.225 11.005-7.347 18.187-7.625 6.695.018 12.066 2.475 18 5.375v-2h2v2c2.294-.89 2.294-.89 3.313-3.75C135.134 44.742 137.615 40 142 40"/><path fill="#D6EBED" d="M106 66h34c.184 6.035.343 12.061.44 18.097q.06 3.078.164 6.154c.097 2.952.142 5.901.177 8.854l.125 2.772c.002 2.607-.082 4.648-.906 7.123-2.393 2.325-4.957 3.68-8 5l-3.117 1.363-2.758.95-2.805.988C121 118 121 118 119 118l-.375 2.438L118 123c-2.972 1.486-5.696 1.132-9 1.125l-3.812.008C102 124 102 124 100 123v-6l6-1v-2l-3-1q2.407.212 4.813.438c.893.08 1.786.162 2.707.246C113 114 113 114 116 115l2-1 .246-2.883C119 108 119 108 121.723 106.32l3.34-1.195 3.347-1.242L131 103l.076-2.187q.175-4.875.362-9.75l.119-3.444.127-3.271.11-3.031C132 79 132 79 133 78c.04-1.666.043-3.334 0-5a88 88 0 0 0-5-1l-1 1c-1.642.125-3.29.176-4.937.188l-2.715.042C117 73 117 73 115 71c-2.603.32-2.603.32-5 1l1 5c3.29-.379 3.29-.379 6-2a92 92 0 0 1 5.063-.062l2.785.027L127 75l1 3 2 1v23c-10.125 4.5-10.125 4.5-17 3v2h4v2h-4v3h-2c-.125-6.75-.125-6.75 1-9l-8 1v2c-5.26.316-8.446-.334-13-3l2.438-1.812C96.223 99.19 96.223 99.19 97 96l-5-1 1-4 1.68 1.059 2.195 1.379 2.18 1.37c3.5 2.145 5.636 2.327 9.757 2.317l3.145.008c3.394-.07 3.394-.07 8.043-1.133l1-13h-15z"/><path fill="#EFFBFA" d="m174.375 34.813 3.773.082L181 35v1l-2.852.297c-8.267.993-13.226 1.78-19.148 7.703.095 2.048.095 2.048 1 4l3 2c.25 2.563.25 2.563 0 5-1 1-1 1-4.562 1.063L155 56c3.733 6.741 3.733 6.741 10 11l2.438 1.188c3.703 1.174 7.006 1.257 10.75.187L180 68l3 2v3l2.18.324c3.074.737 5.244 1.857 7.945 3.489.848.5 1.696 1.002 2.57 1.519 2.347 1.699 3.782 3.215 5.305 5.668v2l7-2c1.564 3.129 1.28 5.527 1 9-1.61 4.42-3.038 7.359-7 10l-3.375.875c-3.775 1.171-5.643 2.614-8.625 5.125-4.23 2.188-8.154 2.24-12.812 2.125l-2.1-.027c-1.696-.024-3.392-.06-5.088-.098v-2l2.152-.148 2.786-.227c.916-.07 1.833-.14 2.777-.21L180 108l1-2h2v-2l-4 1v-2l1.934-.586 2.504-.789 2.496-.773c2.244-.66 2.244-.66 3.066-2.852h-3l2-2c.554-4.545.554-4.545-1.15-8.592-2.454-1.868-4.822-2.582-7.768-3.494l-3.553-1.133a5945 5945 0 0 0-7.375-2.289C161.423 78.342 155.786 76.078 150 72l2-1a78 78 0 0 1 5 2l3 1-1-4h-2v-2h-2l-1-12h-7c-1.125-4.75-1.125-4.75 0-7h3l.75-1.937L152 45l1.813-.375c2.928-.837 3.95-2.625 5.648-5.055 4.328-4.416 8.978-4.925 14.914-4.757"/><path fill="#F1FAFA" d="M161 95c2.43 1.117 2.43 1.117 4.875 2.5 5.419 2.966 10.042 3.384 16.125 2.5 2.58-.772 4.602-1.724 7-3l2-1c-.75 2.438-.75 2.438-2 5-1.75.75-1.75.75-4 1l-3.25.563L179 103v2l4-1v2l-2 1 3 2h-14v2c10.456.627 18.467.983 27.617-4.883C200 105 200 105 202.32 105.82L204 107l-2 1-1 2c-1.437 2.125-1.437 2.125-3 4h-2l-1 3c-6.154 3.006-13.249 2.385-19.945 2.479-5.518.154-9.186.686-14.055 3.521-4.31.88-7.371.308-11.312-1.625-4.429-3.914-5.854-7.501-6.25-13.312.125-4.892 1.697-7.34 5.054-10.786 3.711-3.143 7.87-2.944 12.508-2.277"/><path fill="#EBF6F8" d="M47.32 39.875 49 41v2l2.313-.125C54 43 54 43 57 45v-2h4l1-4h7l-5 9-2.781-.14c-9.322-.275-14.651.528-21.906 6.265-4.377 5.44-8.207 11.606-7.668 18.809C32.855 79.967 34.716 86.919 40 92c5.734 3.68 10.875 5.13 17.688 5.063l3.574-.028L64 97l-1 6-5 1v-3H45v4c-4.522-.532-7.484-2.123-11-5-.875-2.75-.875-2.75-1-5l-2.32-.14C28 94 28 94 26.383 91.452l-1.258-3.203-1.305-3.172C22.765 81.116 23.188 78.624 25 75h4l-1-7-4-1c-.485-5.826.47-10.22 4-15 1.65-.707 3.316-1.38 5-2l.688-2.812c1.84-4.47 4.612-5.398 8.804-7.5C45 39 45 39 47.32 39.875"/><path fill="#F1FCFC" d="M116 67h23v43c-12.375 6.75-12.375 6.75-20 8l-.375 2.438L118 123c-2.972 1.486-5.696 1.132-9 1.125l-3.812.008C102 124 102 124 100 123v-6l6-1v-2l-3-1q2.407.212 4.813.438c.893.08 1.786.162 2.707.246C113 114 113 114 116 115l2-1 .246-2.883C119 108 119 108 121.723 106.32l3.34-1.195 3.347-1.242L131 103l.076-2.187q.175-4.875.362-9.75l.119-3.444.127-3.271.11-3.031C132 79 132 79 133 78c.167-2.5.167-2.5 0-5-1.086-1.313-1.086-1.313-3.723-1.098l-3.34.035-3.347.028L120 72l-1-3z"/><path fill="#143C60" d="M4 66h1l1 14 4.25.875c3.096 1.017 4.435 1.67 6.309 4.375 2.835 6.594 2.835 6.594 1.586 10.258L17 98c-1.07 2.432-1.07 2.432-1 5 2.073 2.801 2.073 2.801 4.938 5.313l2.84 2.675L26 113l2.25-.937c6.032-2.331 6.032-2.331 9.04-1.208.77.44 1.54.88 2.335 1.332l2.352 1.293c2.275 1.71 3.088 2.85 4.023 5.52v4q3.938.04 7.875.063l2.262.025c4.061.119 4.061.119 7.863-1.088.442-1.298.83-2.614 1.188-3.937.75-2.184.75-2.184 1.812-4.063 3.688-1.5 3.688-1.5 7-2l-1.172-1.25c-3.885-4.309-6.42-8.473-8.828-13.75h2a123 123 0 0 0-2.437-8.687l-.747-2.387c-.65-2.113-.65-2.113-2.816-2.926l2-17h1l.332 3.402C64.8 83.627 67.377 97.27 79 107c4.772 3.6 9.439 6.235 15 8.438 2.8 1.195 2.8 1.195 5 2.562 1.188 3.813 1.188 3.813 1 7h-3l-.625-2.437L95 120c-2.858-.685-2.858-.685-6-1-3.687-1.76-5.538-3.147-7-7h-4l-.687 1.813C76 116 76 116 73.687 117.313c-2.723 1.71-3.43 2.669-5.062 5.312-1.865 2.71-2.297 3.27-5.562 4.313-1.354.057-2.709.069-4.063.062l-3.492.145c-7.325.202-7.325.202-10.508-.145-2.152-3.228-2.2-4.284-2-8l-5-1 2-1-2-2c-2.54.091-2.54.091-5 1l-2 3c-2.625.188-2.625.188-5 0v-3l-5-2v-3h-5l-.187-2.187c-1.058-3.66-3.019-5.305-5.813-7.813l2-1v-5l2 1v-6h-2v-3H5c-.922-2.766-1.118-4.383-1.098-7.23l.01-2.432.026-2.525.013-2.561Q3.971 69.126 4 66m80 52 3 1Z"/><path fill="#045878" d="M148 74q2.505 1.49 5 3c1.655.385 3.322.728 5 1l2 1v3l1.688-.625c3.04-.493 4.507.385 7.312 1.625q3.498 1.008 7 2 2.443.732 4.875 1.5l2.305.719C185.63 88.27 185.835 89.67 187 92c-.125 2-.125 2-1 4-4.256 2.66-9.153 2.63-14 2-4.48-1.308-8.824-2.912-13-5-1.65.062-3.297.197-4.937.375l-2.653.273c-2.546.3-2.546.3-5.41 1.352a140 140 0 0 0-1 4 63 63 0 0 1-3 3c-.058-3.25-.094-6.5-.125-9.75-.017-.92-.034-1.84-.05-2.79l-.02-2.694-.032-2.476c.249-2.509.97-4.124 2.227-6.29h2v-3z"/><path fill="#3E4D5B" d="M44.207 38.387 46 39l-2.336 1.102c-6.26 2.818-6.26 2.818-10.039 8.148L33 51l-2.437.938c-2.9.889-2.9.889-4.313 4.25C24.936 59.722 24.383 63.248 24 67l5 1v7h-4c-1.54 5.904-.402 9.348 2.09 14.863C28 92 28 92 28 94h5l.375 2.688c2.45 4.993 6.65 6.237 11.625 8.312v-4h13v3l4 1h-2v3l1.938-.562L64 107c1 1 1 1 1.188 3.438C65 113 65 113 63 115h-4v-2h-7v-2l-6 2v-6l-2.625-.25C40 106 40 106 37 103.938c-3.423-2.211-5.043-2.028-9-1.938-2-3-2-3-2.375-6.187-.65-3.964-1.897-6.47-3.77-9.946C20.771 83.5 20.68 81.57 21 79l-6-1v-2h-3c-.375-2.187-.375-2.187 0-5 2.75-2.812 2.75-2.812 6-5h4l.113-1.793C22.527 59.234 23.343 56.275 26 52c.04-2 .044-4 0-6 2-2 2-2 5.188-2.875 3.084-.91 4.872-1.665 7.5-3.312C42 38 42 38 44.207 38.387"/><path fill="#DDF4F5" d="M183 27v1l-16 2v1c1.373.09 1.373.09 2.773.184l3.602.253 3.586.247C180 32 180 32 182 33v4h-9v-1c-5.205-.65-8.058.826-12.25 3.629-1.994 1.562-3.271 3.33-4.75 5.371-1.65.707-3.316 1.38-5 2l-1 2h-3v6l7 1q.542 2.435 1.063 4.875l.597 2.742C156 66 156 66 155 68l6 2-1 5-1.5-.812c-2.36-1.194-2.36-1.194-4.406-1.778-3.98-1.255-5.785-2.038-8.531-5.347-3.598-7.052-3.863-15.87-1.95-23.512 3.068-6.88 9.114-11.722 15.762-14.989C166.837 25.806 175.178 26.694 183 27"/><path fill="#D9EBEF" d="M47 21c2.95-.22 5.684-.28 8.625-.187l2.43.04c1.982.036 3.963.09 5.945.147l1 3.75c1.337 3.677 2.679 5.036 6.188 6.75A83 83 0 0 0 75 33c-4.38 5.718-4.38 5.718-7.062 6.938-2.163.07-3.884-.278-5.938-.938l-1 4h-4v2c-8.936-1.904-8.936-1.904-11-5v-2l-9 3v-2l2.938-1.937C43.243 35.289 43.243 35.289 44 32l-1-2h2l-.125-2.812C45 24 45 24 47 21"/><path fill="#DEF5F4" d="M199 22c3.429 2.02 6.208 4.417 8 8 .763 6.838.17 11.478-4 17-2.945 2.536-5.269 3.199-9.062 3.375-3.854-.367-5.262-.7-7.938-3.375l4-3c-1.722-3.248-1.722-3.248-5-4l.035-2.773.028-3.602.035-3.586c.117-2.958.117-2.958-1.098-5.039 4.566-3.652 9.394-4.107 15-3"/><path fill="#1B6676" d="m196.063 17.875 2.597-.008C201 18 201 18 204 19v3l3 1c1.284 2.569 1.33 4.766 1.563 7.625l.253 3.04L209 36l2-2c.074 3.343.065 5.804-1 9l-.25 2.063C209 47 209 47 206.75 48L204 49l-2.125 2.125c-4.35 2.837-8.811 2.524-13.875 1.875-3.316-1.251-3.948-1.922-6-5-2.098-.477-2.098-.477-4.437-.375l-2.372-.023c-2.634.479-3.517 1.364-5.191 3.398.703 2.51.703 2.51 2 5 2.041.887 2.041.887 4 1v4c-4.386-.501-6.99-1.733-10-5-.562-3.5-.562-3.5 0-7 2.219-2.907 3.52-3.84 7-5 4.936-.51 8.75-.807 13 1.938L188 48c3.199 1.6 6.521 1.361 10 1 3.395-1.358 4.704-2.582 6.813-5.562 1.584-4.586 2.042-8.64 1.187-13.438-1.694-3.118-3.78-5.39-7-7-5.29-.403-10.213-.553-15 2v2l-3.91.148-5.153.227c-.847.03-1.695.062-2.568.094-5.106.236-9.517.911-14.369 2.531l-3-3c8.506-2.78 16.022-4.454 25.04-4.629 3.307-.414 4.446-1.287 6.96-3.371 3.028-1.064 5.868-1.135 9.063-1.125"/><path fill="#124860" d="m118.246 63.242 1.988.143c2.069.152 4.136.32 6.204.49q2.12.16 4.24.316 5.163.387 10.322.809l.06 3.577c.076 4.394.165 8.789.257 13.183q.058 2.849.105 5.698c.046 2.735.104 5.47.164 8.206l.035 2.558c.116 4.662.73 8.363 2.379 12.778.125 3.375.125 3.375 0 6l-3-4-3.437 1.813c-3.052 1.558-5.946 2.612-9.25 3.5-3.611 1.093-4.889 2.11-6.75 5.374-1.114 1.856-1.114 1.856-2.563 3.313-4.53.915-8.647.451-13-1-2.638.394-2.638.394-5 1v-3c1.59-.09 1.59-.09 3.21-.184l4.165-.254 2.117-.119c3.882-.186 3.882-.186 7.508-1.443l.242-1.906C119 118 119 118 121.695 116.656l3.43-1.156c7.476-2.277 7.476-2.277 13.875-6.5 1.046-3.25.955-6.406.902-9.797l.038-2.875c.031-3.027.015-6.051-.002-9.078q.02-3.08.048-6.16c.047-5.032.029-10.057.014-15.09h-34v17h15v13c-6.968 2.323-13.579 3.622-20.672 1.02-4.074-2.164-6.7-4.188-9.328-8.02h3l1-2c1.5 1.375 1.5 1.375 3 3v2l2-.187c2.813.175 4.434.652 7 1.687 3.126 1.239 5.596 2.1 9 1.5 1.934-2.9 2.301-3.897 2.625-7.187L119 84h-14c-1.655-3.31-1.1-6.991-1.062-10.625l.013-2.43q.02-2.972.049-5.945c5.045-1.68 8.869-2.173 14.246-1.758"/><path fill="#375F5C" d="M111 70c4.556.556 4.556.556 6 2 4.38.276 8.7.271 13-.625l2-.375c2 2 2 2 2.188 4.563C134 78 134 78 133 79a104 104 0 0 0-.316 5.348l-.127 3.271-.12 3.444-.13 3.455q-.16 4.24-.307 8.482-2.4 1.259-4.812 2.5l-2.708 1.406C122 108 122 108 119 108v6c-2.187 1.125-2.187 1.125-5 2-2.625-.875-2.625-.875-5-2h-3v2l-5-1v-4h-3v-2h6v-2l-1.723.14c-6.184.29-9.083-.87-14.277-4.14-2.318-.829-4.604-1.413-7-2l-1-5 1 3h4v-3l-3-2c2.313.125 2.313.125 5 1l1.375 2.813c2.03 3.982 4.57 5.61 8.625 7.187 2.37.547 4.565.801 7 1v-2h-5v-1h13l-1 9h2v-3h4v-2h-4v-2l3.5.188c4.99.267 7.187-1.196 12.5-3.188l1-23-3-1v-3c-1.626.114-3.25.242-4.875.375l-2.742.21c-2.562.21-2.562.21-4.383 2.415-2.625-.375-2.625-.375-5-1-.625-2.375-.625-2.375-1-5z"/><path fill="#54716E" d="M108.688 27.563c4.074.538 5.486 1.801 8.183 4.773C118 34 118 34 118.438 36.813 118 39 118 39 117 40q-3.5.062-7 0v4l-4-1v-2c-5.079-1.187-8.822-1.593-13.437 1.125C89.407 44.368 88.028 46.197 87 50l-2 2h-4c-1.922 4.583-3.457 9.28-5 14h4c2.489 4.685 1.857 7.944 1 13l-4 1 .875 2.336L79 85.375l1.125 3.023C81 91 81 91 81 93h-2c-4.886-10.012-4.886-10.012-4-14l2.063-2.562c2.181-2.187 2.181-2.187 1.812-4.481-.709-2.104-.709-2.104-2.723-3.004l-2.215-.703-2.222-.734L70 67l4-1 .25-2.5c.646-3.015 1.327-4.792 2.75-7.437 1.995-3.751 2.649-6.845 3-11.063l3.375-1.187C92.545 40.307 98.955 36.912 105 29c1-1 1-1 3.688-1.437"/><path fill="#0E5670" d="M109 19v-2l1.625.563c2.995.551 5.412.043 8.375-.563 2 3 2 3 3 5.125.859 2.045.859 2.045 3 2.875v2l2.875.438C131 28 131 28 133 29l-1 3-4.812-1.437-2.708-.81A216 216 0 0 1 119 28v-6h-19l-1 6-2.09.664c-13.14 4.434-21.934 11.1-28.222 23.586A680 680 0 0 0 66 58a462 462 0 0 1-2 4c-1-1-1-1-1.062-3.562L63 56h2l1-7-3-1c10.036-14.518 10.036-14.518 13-16l1-2 1 3h2l1-3h2v-2l2.063-.375C88.428 26.909 91.7 25.971 95 25l.25-2.375C96 20 96 20 97.938 18.75L100 18c3.2-1.6 5.723-.032 9 1"/><path fill="#D4E7EB" d="m156.5 94.813 2.406-.043C161 95 161 95 163 97l-2.937-.062c-2.938-.294-2.938-.294-4.063 1.062l3 1v2h4v2h2l-2 4 3 1v2h-3l-1 2h2v3h-2v-2h-2v4h-2v-3h-2l-1 3h-2l-1-2-3 2 1 4c-4.38-4.155-6.129-6.722-6.437-12.75.022-5.04 1.472-7.423 4.93-10.973 2.676-2.267 4.579-2.437 8.007-2.465"/><path fill="#EFFBFA" d="m184 26 2 2c-.023 2.82-.023 2.82-.375 6.125l-.336 3.32L185 40l1.922.371C189 41 189 41 190.25 43.062L191 45l-6 2-2-2c-4.6-.627-8.764-.566-13 1.375-2.062 1.619-2.062 1.619-4 3.625-5.455-.455-5.455-.455-8-3 0-1.812 0-1.812 1-4 5.517-5.048 8.343-6.15 15.625-6.062l2.14.013q2.618.02 5.235.049v-4l-1.723.07c-5.203.122-9.35-.393-14.277-2.07l1-2c2.684-.45 5.298-.796 8-1.062 4.896-.089 4.896-.089 9-1.938"/><path fill="#307570" d="m174.375 34.813 3.773.082L181 35v1l-2.852.297c-8.267.993-13.226 1.78-19.148 7.703.095 2.048.095 2.048 1 4l3 2c.25 2.563.25 2.563 0 5-1 1-1 1-4.562 1.063L155 56c3.733 6.741 3.733 6.741 10 11l2.438 1.188c3.703 1.174 7.006 1.257 10.75.187L180 68l3 2v3l2.176.32c3.103.747 5.29 1.9 8.012 3.555l2.605 1.555C198 80 198 80 200 83v3h-2l-1-2.187c-3.04-4.276-7.107-6.098-12-7.813-2.29-.253-2.29-.253-4.437-.125L177 76l-1.355-1.371c-2.258-2.236-4.487-2.685-7.52-3.567-5.762-1.834-9.337-3.596-12.937-8.562C154 60 154 60 154 56h-7c-1.125-4.75-1.125-4.75 0-7h3l.75-1.937L152 45l1.813-.375c2.928-.837 3.95-2.625 5.648-5.055 4.328-4.416 8.978-4.925 14.914-4.757"/><path fill="#CBDCE4" d="m64 98 1.563 2c3.05 3.753 6.236 7.376 9.437 11l-1 2-3.375.625c-3.642.94-3.642.94-4.684 3.246a67 67 0 0 0-1.336 4.352C64 123 64 123 62 124c-2.332.097-4.666.13-7 .125l-3.812.008C48 124 48 124 46 123c-.852-2.066-.852-2.066-1.625-4.562-.26-.827-.52-1.653-.79-2.504L43 114h2l-1-7h2l1 5 5-1v2h7v2l5-2v-5h-4l-1-5h4z"/><path fill="#1F7B6B" d="M208 84c1.564 3.129 1.28 5.527 1 9-1.61 4.42-3.038 7.359-7 10l-3.375.875c-3.775 1.171-5.643 2.614-8.625 5.125-4.23 2.188-8.154 2.24-12.812 2.125l-2.1-.027c-1.696-.024-3.392-.06-5.088-.098v-2l2.781-.113c11.526-.29 11.526-.29 21.184-5.758 2.609-2.908 4.868-5.878 7.035-9.129l-7 7-2-2c.135-3.636.421-6.156 2.5-9.187C198.263 87.085 203.235 84 208 84"/><path fill="#E2F6F6" d="M183 27v1l-16 2v1c1.373.09 1.373.09 2.773.184l3.602.253 3.586.247C180 32 180 32 182 33v4h-9v-1c-5.92-.74-9.443 1.55-14 5a89 89 0 0 0-3 3l-2-6c-4.126-.448-4.126-.448-6.75 2.5L145 43c1.548-6.384 6.821-9.994 12.117-13.336C165.223 25.71 174.22 26.656 183 27"/><path fill="#133756" d="M45 101h13v3l4 1h-2v3l1.938-.562c.68-.145 1.36-.29 2.062-.438 1 1 1 1 1.188 3.438C65 113 65 113 63 115h-4v-2h-7v-2l-6 2v-6l-2.812-.312c-3.22-.695-4.214-1.165-6.188-3.688 2.763.523 5.326 1.109 8 2z"/><path fill="#4D6E79" d="M55.063 27.5c3.34.569 4.666.986 6.937 3.5 1.25 3.688 1.25 3.688 2 7h-2l-1 5h-4v2c-7.536-1.459-7.536-1.459-9.5-3.75-.667-3.001-.939-5.179-.5-8.25 2.49-3.37 3.886-4.818 8.063-5.5"/><path fill="#E6F7F9" d="m209 79 2 1c2.313 6.939 2.253 16.165-.023 23.133-3.352 6.055-7.97 9.584-13.977 12.867l-1-2h2l.813-2.375C200 109 200 109 203 107c-2.823-1.292-2.823-1.292-4.867-.293l-2.008 1.106c-2.99 1.594-5.946 2.995-9.125 4.187l-2-2 1.645-.77 2.167-1.043 2.145-1.019c2.089-1.06 2.089-1.06 3.52-2.75 1.977-1.84 3.437-1.935 6.085-2.293 2.37-.405 2.37-.405 4.438-1.125 1.637-2.34 1.637-2.34 2-5l1-3c.067-1.561.085-3.125.063-4.687l-.028-2.45L208 84l-2-1h3z"/><path fill="#204463" d="m42 51 4 2c-5.75 5-5.75 5-8 5l-3 9h-2c.33 5.015.33 5.015 3 9 .633 2.602.633 2.602 1.125 5.625l.508 3.04L38 87h2c1.023.976 2.019 1.981 3 3a249 249 0 0 0 4 3l1 1a226 226 0 0 0 8.063.563l2.298.13q2.82.159 5.639.307c-1.655 2.013-2.57 2.914-5.164 3.434-7.76.012-13.176-2.076-19.648-6.246-5.986-5.986-7.706-12.92-8.626-21.063.178-6.432 3.723-12.684 8.188-17.187L41 52z"/><path fill="#D8F2F1" d="M191 78c2.629 1.522 4.844 2.844 7 5v3h2l1-2 1 3-2.812 1.25c-3.126 1.716-4.542 2.642-6.188 5.75-.251 2.668-.251 2.668 0 5 2.135.221 2.135.221 3.727-1.531l1.898-1.969 1.914-1.969L202 92c0 3 0 3-1.61 4.902l-2.14 2.035-2.11 2.028L194 103l-2.078 2.191c-3.6 3.389-7.212 2.898-11.922 2.809l1-2h2v-2l-4 1v-2l1.934-.586 2.504-.789 2.496-.773c2.244-.66 2.244-.66 3.066-2.852h-3l2-2c.242-1.981.242-1.981.125-4.125L188 88h7v-2l1-1-5-2z"/><path fill="#EAF4F6" d="M119 109c1.063 1.813 1.063 1.813 2 4l-1 3 4 1-5 1-.375 2.438L118 123c-2.972 1.486-5.696 1.132-9 1.125l-3.812.008C102 124 102 124 100 123v-6l6-1v-2l-3-1q2.407.212 4.813.438c.893.08 1.786.162 2.707.246C113 114 113 114 116 115l2-1c.656-2.527.656-2.527 1-5"/><path fill="#134B67" d="M82 94c2.313.125 2.313.125 5 1l1.375 2.813c2.03 3.982 4.57 5.61 8.625 7.187 2.37.547 4.565.801 7 1v-2h-5v-1h13l-1 9h2l1-3 2 2h-2l1 5-9-2v2l-5-1v-4h-3v-2h6v-2l-1.723.14c-6.184.29-9.083-.87-14.277-4.14-2.318-.829-4.604-1.413-7-2l-1-5 1 3h4v-3z"/><path fill="#2C765F" d="M194.125 28.563C197 29 197 29 200 31c1.768 2.564 2.052 3.621 1.625 6.75L201 40l-5 1-1 3h-3v-2l-2.437-.937C187 40 187 40 186 39c-.375-2.25-.375-2.25 0-5 2.536-3.357 3.905-4.847 8.125-5.437"/><path fill="#0F4D72" d="M66 19c.625 3.063.625 3.063 1 6l1.75.25C71.616 26.205 73 27.785 75 30l-1 2c-3.312-.5-3.312-.5-7-2-1.56-2.636-2.18-5.006-3-8H47l-2 8c-2.426 1.945-2.426 1.945-5.312 3.125l-2.864 1.258c-3.396.742-4.796.23-7.824-1.383a70 70 0 0 1-4-3l1.793.29c5.643.79 9.116.807 13.957-2.477C42.645 25.065 42.692 22.266 43 19c19.646-1.677 19.646-1.677 23 0"/><path fill="#EBF6F7" d="M181 75c3.674.408 6.91.903 10 3l2 4c2.034 1.268 2.034 1.268 4 2v2h-2v2c-5.34.445-8.334-.406-13-2.977-2.911-1.49-5.835-2.232-9-3.023.688-1.875.688-1.875 2-4 2.563-1.187 2.563-1.187 5-2z"/><path fill="#F5FCFB" d="M75 44c3 1 3 1 4 3 .383 4.78-.565 8.022-2.5 12.375l-1.406 3.21L74 65h-6c-1.207-4.947-.846-8.252 1-13 2-2.187 2-2.187 4-4 1.235-2.133 1.235-2.133 2-4"/><path fill="#1D6173" d="M177 59c3.786.516 6.613 1.307 10 3q2.988.57 6 1c2.813.438 2.813.438 5 1l1 2 3 1v2l5-2 .75 2.375c1.404 2.948 2.257 3.527 5.25 4.625v5l2 1v4h-2l-1-6-3 1-1.074-1.574c-6.707-8.786-16.62-11.091-27-13.555-2.495-1.128-2.969-2.368-3.926-4.871"/><path fill="#486772" d="M85 45h2c.125 2.375.125 2.375 0 5l-2 2h-4c-1.922 4.583-3.457 9.28-5 14h4c2.489 4.685 1.857 7.944 1 13l-4 1 .875 2.336L79 85.375l1.125 3.023C81 91 81 91 81 93h-2c-4.886-10.012-4.886-10.012-4-14l2.063-2.562c2.181-2.187 2.181-2.187 1.812-4.481-.709-2.104-.709-2.104-2.723-3.004l-2.215-.703-2.222-.734L70 67l4-1 .25-2.5c.783-3.652 2.096-6.267 3.828-9.531 1.217-2.6 1.638-5.127 1.922-7.969l2 3h3z"/><path fill="#E2EEF3" d="M12 76h3v2l6 1c.182.58.364 1.16.55 1.758 1.178 3.658 2.334 7.022 4.137 10.43 1.48 3.169 1.56 5.356 1.313 8.812h-2v-6l-5 1c-2.968-4.022-4.524-7-5-12l-8-1c3.228-2.152 4.284-2.2 8-2l-1-3z"/><path fill="#30404F" d="M44.207 38.387 46 39l-2.336 1.102c-6.26 2.818-6.26 2.818-10.039 8.148L33 51l-2.398.836c-2.802.936-2.802.936-3.93 3.625l-.922 2.914-.953 2.898A134 134 0 0 0 23 68l2 1-11 2c1.75-2.5 1.75-2.5 4-5h4l.113-1.793C22.527 59.234 23.343 56.275 26 52c.04-2 .044-4 0-6 2-2 2-2 5.188-2.875 3.084-.91 4.872-1.665 7.5-3.312C42 38 42 38 44.207 38.387"/><path fill="#8AA6B0" d="M69 66q2.19.676 4.375 1.375l2.46.773C78 69 78 69 80 71c-.295 3.832-1.234 5.455-4 8-1.176 2.1-1.176 2.1-2 4v-3l-2.375-.437C69 79 69 79 67 78c-.178-4.548.002-7.88 2-12"/><path fill="#225669" d="M125 51v2a1097 1097 0 0 1-9.07-1.535l-3.055-.528-3.07-.535c-2.993-.497-2.993-.497-6.805-.402l-1 2-1.937.938C97.68 53.953 97.68 53.953 96 57h-2c-1.224 2.075-1.224 2.075-1 5l-2 2h-3c.375-5.244 2.156-8.51 6-12 9.835-6.931 20.655-6.721 31-1"/><path fill="#EAF3F6" d="m46 114 1.5.875c5.254 2.364 9.832 3.625 15.5 2.125l2 1c-.375 2.438-.375 2.438-1 5-2.972 1.486-5.696 1.132-9 1.125l-3.812.008C48 124 48 124 46 123c-.45-1.812-.45-1.812-.687-4l-.262-2.187L45 115z"/><path fill="#3B6C7B" d="m157 100 .25 1.875c.563 2.31.563 2.31 2.813 3.375L162 106v2h4v2h-3l-1 2h2v3h-2v-2h-2v4h-2v-3h-2l-1 3h-2v-3h-3v-2h2l.313-3.375L153 105l3-2z"/><path fill="#F8FCFB" d="M147 57h6l.375 1.813c.58 2.45.58 2.45 2.625 5.187-.375 2.188-.375 2.188-1 4l6 2-1 5-1.625-.875c-2.728-1.292-5.501-2.21-8.375-3.125l-.25-2.25c-.89-3.262-2.235-4.56-4.75-6.75z"/><path fill="#2C6670" d="m186.723 20.902 3.34.035 3.347.028L196 21v1l-1.863.402-2.45.535-2.425.528c-2.407.534-2.407.534-5.262 1.535v2l-3.91.148-5.153.227c-.847.03-1.695.062-2.568.094-5.106.236-9.517.911-14.369 2.531l-3-3c8.653-2.827 16.254-4.472 25.332-4.824 3.109-.205 3.257-1.161 6.39-1.274"/><path fill="#EDF9FA" d="M48 22c5.447-.097 10.639-.129 16 1 .625 2.375.625 2.375 1 5l-2 2c-2.39-.2-2.39-.2-5.25-.687-4.049-.527-4.049-.527-7.809.726C48.116 31.547 48.116 31.547 46 34c-.268-8.036-.268-8.036 2-12"/><path fill="#26796E" d="m174.375 34.813 3.773.082L181 35v1l-2.852.297c-8.267.993-13.226 1.78-19.148 7.703.267 1.985.267 1.985 1 4l1 3-1 2h-2v-3l-1 4-6 1-2-3h2v-6l2.188-.625c3.05-1.253 3.05-1.253 5.25-4.312 4.59-5.487 8.944-6.448 15.937-6.25"/><path fill="#F4FAFC" d="m11 63 2 1v2q.476 2.505 1 5h-2v6h2v2l2 1c-3.386 1.042-6.474 1.039-10 1-.135-2.44-.234-4.871-.312-7.312l-.127-2.092C5.51 69.574 5.51 69.574 6 66c2.395-2.043 2.395-2.043 5-3"/><path fill="#1A4B63" d="M119 84h1l1 12c-6.397 2.843-14.06 3.446-20.672 1.02-4.074-2.164-6.7-4.188-9.328-8.02h3l1-2c1.5 1.375 1.5 1.375 3 3v2l2-.187c2.813.175 4.434.652 7 1.687 3.126 1.239 5.596 2.1 9 1.5 1.934-2.9 2.301-3.897 2.625-7.187z"/><path fill="#A5B9CB" d="m23 64 1 3 5 1v7c-4.06.984-7.836 1-12 1l-2 1-3-1v-5l11-3z"/><path fill="#EAF7F7" d="M108 29c3.441 1.53 6.222 3.454 9 6v3l-7 1v-3h-2v5h-2v-2l-5-1c.176-2.38.697-3.702 2.402-5.379 1.504-1.242 3.05-2.435 4.598-3.621"/><path fill="#133B5D" d="M12 39h5l-.625 3.313c-.778 3.77-.778 3.77 1.625 6.687-.25 3.313-.25 3.313-1 7l-.5 3.313C15 62 15 62 12.867 62.816 10.58 63.33 8.327 63.722 6 64v-4l1.715-.594C10.063 58.45 11.986 57.55 14 56c1.045-2.838 1-4.918 1-8h-4l.063-2.375c.124-2.606.124-2.606-1.063-4.625h2z"/><path fill="#04386C" d="m6 56 1 2 5-1-2.375 2.313C6.927 61.909 6.927 61.909 5 65l-1-2c-1.516 4.56-1.048 9.332-.96 14.068C3.081 80.855 2.921 84.32 2 88H0V60l5-2z"/><path fill="#456964" d="m182 69 1 4 2.176.32c3.103.747 5.29 1.9 8.012 3.555l2.605 1.555C198 80 198 80 200 83v3h-2l-1-2.187c-3.04-4.276-7.107-6.098-12-7.813-2.29-.253-2.29-.253-4.437-.125C177 76 177 76 175.25 74.625L174 73c-2.1-1.176-2.1-1.176-4-2 7.286-3.571 7.286-3.571 12-2"/><path fill="#E4F5F8" d="m152 114 1 3 1.375-1.5C156 114 156 114 158 114v3c3.593.958 5.385 1.205 9 0l3 2c-5.893 3.056-10.329 4.69-17 4-3.607-2.404-3.855-3.947-5-8z"/><path fill="#0B667F" d="M132 32c4.436-.391 7.283.55 11 3 1.329 3.156 1.145 4.565.063 7.813L142 45l-1-3 1-2c-4.595 3.55-7.765 6.477-10 12h-2l-1-3c1.672-2.663 3.592-5.054 5.531-7.527 1.697-2.313 1.697-2.313 1.285-4.68-.946-2.08-2.101-3.302-3.816-4.793"/><path fill="#F3FBFB" d="M95 41h7l1 4-4 2v3c-2.25 1.75-2.25 1.75-5 3-2.312-.312-2.312-.312-4-1v-4h2l-1-3 3-1z"/><path fill="#E0F2F4" d="m156.5 94.813 2.406-.043C161 95 161 95 163 97l-2.937-.062c-2.938-.294-2.938-.294-4.063 1.062l3 1v2h4v2h2l-2 4-6-4-5 4-2-1v-3h2v-4h-2v-3c2.353-1.177 3.88-1.166 6.5-1.187"/><path fill="#246A79" d="m178.188 43.938 2.73.027L183 44c-3.903 3.209-7.12 3.943-12 5-.692 1.847-.692 1.847-1 4 1.635 3.125 1.635 3.125 4.125 3.688L176 57v4c-4.386-.501-6.99-1.733-10-5-.562-3.5-.562-3.5 0-7 3.45-4.522 6.714-5.134 12.188-5.062"/><path fill="#174F67" d="M212 86h1l1 9h2l-3 10h-2l-.25 2.125c-.96 3.68-2.268 5.99-4.75 8.875-3.25.375-3.25.375-6 0 1.112-2.73 2.233-4.227 4.375-6.312 7.122-7.292 7.35-13.753 7.625-23.688"/><path fill="#0A3F5D" d="m145 117 1.469 1.094c5.149 3.564 8.275 4.713 14.531 3.906l2.688-1.55c4.32-1.89 7.576-1.58 12.187-1.138l2.375.186c1.918.152 3.834.325 5.75.502v1l-3.07.148-4.055.227c-.665.03-1.33.062-2.016.094-4.257.25-7.88 1.006-11.859 2.531v3l-13-1v-2h-2c-3-4.385-3-4.385-3-7"/><path fill="#3D5C65" d="M57 29c1.813.125 1.813.125 4 1 3 5.036 3 5.036 3 8h-2l-1 5h-4v2c-7.555-1.462-7.555-1.462-9.5-3.812-.564-2.467-.64-4.666-.5-7.188h2c1.063 2.375 1.063 2.375 2 5l-1 2h7c2.349-1.973 3.001-3.003 4-6h-3l-2 4-4-1 1-2h3l1-2h3c-.776-3.075-.776-3.075-3-5"/><path fill="#F8FCFC" d="M153 36c1.5 1.125 1.5 1.125 3 3 .188 3.188.188 3.188 0 6l-2.437.875c-2.696.858-2.696.858-3.563 3.125l-4-1c-.812-2.125-.812-2.125-1-5 3.9-5.633 3.9-5.633 8-7"/><path fill="#D8F5F5" d="m209 79 2 1c1.263 3.788 1.223 7.365 1.25 11.313l.063 2.263c.034 4.905-.712 8.119-3.313 12.424l-2-6-2-1 1.5-2.437c1.845-4.383 1.78-7.886 1.5-12.563l-2-1h3z"/><path fill="#48647B" d="M45 101h13v3l4 1h-2v3l1.938-.562c.68-.145 1.36-.29 2.062-.438 1 1 1 1 1.188 3.438C65 113 65 113 63 115h-4v-2h-2v-11H46v4l-2-1z"/><path fill="#F8FDFD" d="m184 26 2 2c-.375 3.625-.375 3.625-1 7l-3 1v-3l-1.723.07c-5.203.122-9.35-.393-14.277-2.07l1-2c2.684-.45 5.298-.796 8-1.062 4.896-.089 4.896-.089 9-1.938"/><path fill="#E5F0F5" d="M44 107h2l1 5 5-1v2h7l1 2c3.03.658 3.03.658 6 1v2l-3.375-.062c-3.457-.202-3.457-.202-5.625 1.062-3.946-.95-7.388-2.194-11-4h-3l2-1z"/><path fill="#135A68" d="M176 45c6.426-.443 8.586.39 14 4 6.445.818 9.652-.435 15-4l2 3-2.312.813c-2.682.952-2.682.952-4.016 2.742-2.362 2.042-4.032 1.812-7.11 1.758l-2.87-.012c-2.761-.309-4.382-.783-6.692-2.301l-2-3c-3.054-1.213-3.054-1.213-6-2z"/><path fill="#14425F" d="M48.021 19.596c2.572-.09 5.096-.03 7.666.091l2.706.069q3.305.089 6.607.244v1l-18 1-2 8c-2.426 1.945-2.426 1.945-5.313 3.125l-2.863 1.258c-3.396.742-4.796.23-7.824-1.383a70 70 0 0 1-4-3l1.793.29c6.332.921 6.332.921 12.207-1.29 2.48-2.115 3.83-3.56 5.012-6.617C46 20 46 20 48.022 19.596"/><path fill="#DAF6F7" d="M199 22c1.805 1.523 1.805 1.523 3 3l-1.863-.36c-2.423-.386-4.682-.688-7.137-.64-2.143 1.767-2.143 1.767-3 4h6v1l-3.375.813c-3.843.845-3.843.845-5.625 4.187-.167 3.125-.167 3.125 0 6h-2l.035-2.773.028-3.602.035-3.586c.117-2.958.117-2.958-1.098-5.039 4.486-3.589 9.466-3.957 15-3"/><path fill="#F0FCFC" d="M100 22h16l1 6c-4.442.108-8.614-.298-13-1l1-2-1.875.938L99 28z"/><path fill="#DCF3F2" d="M97 39c2.129.172 2.129.172 4.563.75l2.44.547C106 41 106 41 107 43l3 1v-4h5l-1.5 1.375c-1.726 1.501-1.726 1.501-1.5 3.625l2 2-15 2v-2l3-2v-3l-7-1z"/><path fill="#0E2E51" d="M4 66h1l1 14 9 3v6l-3 1v-3H5c-.922-2.766-1.118-4.383-1.098-7.23l.01-2.432.026-2.525.013-2.561Q3.971 69.126 4 66"/><path fill="#DAF1F7" d="M62 39h7l-5 9-11-1 1-3 3 1v-2h4z"/><path fill="#17455D" d="M73 40h2L64 62c-1-1-1-1-1.062-3.562L63 56h2l1-7-3-1c2.38-3.968 4.673-4.683 9-6z"/><path fill="#C1D8E0" d="M47 21c2.95-.22 5.684-.28 8.625-.187l2.43.04c1.982.036 3.963.09 5.945.147v1H48c-.791 6.33-1.048 11.712 0 18h-2v-2l-9 3v-2l2.938-1.937C43.243 35.289 43.243 35.289 44 32l-1-2h2l-.125-2.812C45 24 45 24 47 21"/><path fill="#E3F2F6" d="m97 109 1 2h3l1 6h-2v5l-.617-1.828c-1.955-3.07-4.148-3.635-7.508-4.922l-3.32-1.297L86 113v-1h6v-2l3 1-1 2 3-1z"/><path fill="#D9F1EF" d="M157 61c4.157.948 7.996 1.907 11.875 3.688L172 66l2-1v3l3 1-1 1c-5.52-.046-10.324-.955-15-4-2.375-2.687-2.375-2.687-4-5"/><path fill="#1D4F69" d="m83 32 2 1-9 8-3-1-1 3h-2l-2 2-2-2c3.558-4.718 6.043-7.606 12-9l2.75-1.187z"/><path fill="#CDE3E8" d="M92 91q2.227 1.142 4.438 2.313l2.496 1.3C101 96 101 96 102 99l-3 2v2l5 1v2c-5.26.316-8.446-.334-13-3l2.438-1.812C96.223 99.19 96.223 99.19 97 96l-5-1z"/><path fill="#1C4C67" d="M86 65h3l-.105 2.852-.082 3.773-.106 3.727C89.022 79.28 90.131 81.579 92 85c-.312 2.375-.312 2.375-1 4-4.391-5.39-5.296-9.95-5.125-16.812l.027-2.1c.024-1.696.06-3.392.098-5.088"/><path fill="#1B475F" d="m140 108 2 4c-6.071 4.017-11.241 5.671-18.496 6.348-2.665.395-2.665.395-3.852 2.71L119 123v-5l2.563-.918c6.676-2.466 12.566-5.053 18.437-9.082"/><path fill="#0B3F52" d="M139 65h2l.06 3.577c.076 4.394.165 8.789.257 13.183q.058 2.849.105 5.698c.046 2.735.104 5.47.164 8.206l.035 2.558c.116 4.662.73 8.363 2.379 12.778.125 3.375.125 3.375 0 6l-.875-1.812c-1.172-2.381-1.172-2.381-3.125-5.188-.278-2.07-.278-2.07-.319-4.471l-.06-2.73-.035-2.936-.059-3.014c-.06-3.178-.106-6.357-.152-9.537l-.117-6.462A4321 4321 0 0 1 139 65"/><path fill="#566E77" d="m46 39-2.336 1.102c-6.302 2.93-6.302 2.93-10.352 8.273L33 51l-5 1c-.312-2.25-.312-2.25 0-5 4.228-4.365 11.784-10.298 18-8"/><path fill="#3D575F" d="M194 102c1.945-.293 1.945-.293 4.125-.187L202 102v1l-3.187.75c-3.658 1.03-5.901 2.798-8.813 5.25-4.23 2.188-8.154 2.24-12.812 2.125l-2.1-.027c-1.696-.024-3.392-.06-5.088-.098v-2l2.781-.113c6.96-.373 12.941-.748 19.219-3.887z"/><path fill="#E1F8FB" d="M100 97h19c-1.428 2.855-3.569 3.294-6.457 4.336-4.76 1.243-9.645 1.427-14.543 1.664z"/><path fill="#1A766A" d="M204 92c2 1 2 1 2.875 3.313.125 2.687.125 2.687-1.312 5-3.681 2.423-6.21 1.977-10.563 1.687q1.404-1.659 2.813-3.312l1.582-1.864A88 88 0 0 1 204 92"/><path fill="#DDEFF4" d="M85 70h1l2 15h-2l-2-4c-3.545 1.398-3.545 1.398-7 3v-4l4-1 1-8 2 1z"/><path fill="#435C62" d="M85 45h2c.125 2.375.125 2.375 0 5l-2 2h-4c-2.107 4.862-3.52 9.922-5 15l-5 1-1-2h4l.25-2.5c.783-3.652 2.096-6.267 3.828-9.531 1.217-2.6 1.638-5.127 1.922-7.969l2 3h3z"/><path fill="#C1DDE2" d="M102 21q3.688-.04 7.375-.062l2.117-.026c5.281-.025 5.281-.025 7.508 1.088v6l3 1-3 2-2 3-5-6 3-2 1-4h-14z"/><path fill="#374E57" d="M82 94c2.313.125 2.313.125 5 1l1.375 2.813c2.093 4.104 4.429 5.496 8.625 7.187 3.273.785 3.273.785 6 1v1c-5.57.39-8.59.056-13.258-2.977-2.771-1.628-5.633-2.262-8.742-3.023l-1-5 1 3h4v-3z"/><path fill="#115064" d="M146 69c3.05 1.462 5.883 3.144 8.75 4.938 4.314 2.618 8.47 4.469 13.25 6.062v2h-8v-3l-3.312-.375C153 78 153 78 150 76v-3h-2z"/><path fill="#DCEFEF" d="M170 72c4.401.503 6.712 2.088 10 5h-2l-1 2c-2.747 2.007-4.099 1.993-7.562 1.75C166 80 166 80 163 78l8 1z"/><path fill="#F8FCFC" d="M158 57h7l1 3h2c1.625 1.375 1.625 1.375 3 3v2c-5.053-.632-9.296-2.135-14-4z"/><path fill="#69B79E" d="M193 30c2.688.875 2.688.875 5 2 .043 2 .04 4 0 6-1 1-1 1-3.437 1.188C192 39 192 39 190 37c-.312-2.5-.312-2.5 0-5z"/><path fill="#285C6E" d="m166.375 94.938 3.21 1.152L172 97v1l11 1-1 2c-7.407.634-12.222-.16-18.695-3.82-3.153-1.614-5.797-1.951-9.305-2.18v-1c4.81-1.148 7.755-.756 12.375.938"/><path fill="#DCEBF1" d="m34 85 1.75 2.313c2.084 2.696 2.084 2.696 4.5 4.374L42 93v2h-3l-1-2-3-1 1 3c-.437 2.688-.437 2.688-1 5h-1l-1-5-5-1-1-3c3.01-.934 3.867-1.044 7 0l-.562-2.437L33 86z"/><path fill="#1B506C" d="M109 107c.553 2.076 1 3.844 1 6l3 1h-7v2l-5-1v-4h-3v-2c6.625-1 6.625-1 10-1z"/><path fill="#DCF2F5" d="M163 50h3l.688 3.313c1.491 4.19 2.476 4.77 6.312 6.687v2h-5v-2h-2l-1-2c-3.417-.167-3.417-.167-7 0l-2 2-1-4 7-1z"/><path fill="#E6F6FA" d="M67 104c5.469 4.395 5.469 4.395 7 6v3l-1.68.621-2.195.817-2.18.808c-1.981.733-1.981.733-3.945 1.754z"/><path fill="#D5E8EE" d="M67 53c1.04 3.38 1.08 6.478 1 10l6 2v1h-5l-2 8h-1l.125-2.312c.096-2.915.096-2.915-2.125-5.688.308-4.769.957-8.641 3-13"/><path fill="#0B616E" d="m196.063 17.875 2.597-.008C201 18 201 18 204 19v3h-18l1-3c2.968-1.155 5.905-1.135 9.063-1.125"/><path fill="#E3F4F3" d="m93 41 2 1-1.5 1.875C91.808 45.839 91.808 45.839 92 48h-2l-.25 1.875C89 52 89 52 87.125 53.313 85 54 85 54 82 53l-.312 1.875C81 57 81 57 78 59c1.875-4.75 1.875-4.75 3-7l2.375-.75C86.911 49.566 87.368 47.477 89 44c2.188-1.875 2.188-1.875 4-3"/><path fill="#136577" d="m181 23 2 2-3 .113c-8.07.376-14.68 1.227-22 4.887l-3-3c8.627-2.858 16.823-5.324 26-4"/><path fill="#C1D8DD" d="M111 100h3v2l2 1-1 2h-2v2h4v2h-4v3h-2c-.125-6.75-.125-6.75 1-9H99v-1l2.371-.184 3.067-.254c1.009-.08 2.018-.162 3.058-.246 2.44-.048 2.44-.048 3.504-1.316"/><path fill="#40655F" d="m174.375 34.813 3.773.082L181 35v1l-2.852.297c-8.355 1.003-13.443 1.662-19.21 7.953C157 46 157 46 154.25 46.25L152 46l1.688-.625c2.597-1.544 4.033-3.393 5.773-5.84 4.37-4.36 8.974-4.89 14.914-4.722"/><path fill="#6E9894" d="M128 71c4.706.706 4.706.706 6 2 .04 1.666.043 3.334 0 5l-2 1c-2.125-.937-2.125-.937-4-2v-3h-11v-1l2.152-.184 2.785-.254c.917-.08 1.834-.162 2.778-.246 2.247-.076 2.247-.076 3.285-1.316"/><path fill="#F8FCFB" d="M46.688 43.375 49 44l1 4a311 311 0 0 1-4.25 1.063l-2.39.597c-2.464.355-4.016.109-6.36-.66 5.943-6.148 5.943-6.148 9.688-5.625"/><path fill="#143D5C" d="m42 51 4 2c-5.75 5-5.75 5-8 5l-.812 2.313c-1.132 2.56-2.1 3.884-4.188 5.687.4-5.469 2.423-8.989 6-13z"/><path fill="#26536F" d="m60 47 1 2-3.25.375c-3.568.398-3.568.398-5.812 1.688-2.68 1.296-5.006 1.07-7.938.937l-1-2c5.825-3.039 10.482-3.354 17-3"/><path fill="#18596D" d="M138 36h1c.504 4.236.263 5.654-2.375 9.125L134 48c-1.279 2.216-1.279 2.216-2 4h-2l-1-3a78 78 0 0 1 4.375-6.687c.425-.607.85-1.214 1.29-1.838A153 153 0 0 1 138 36"/><path fill="#0B4378" d="M53.125 102.875 56 103v6h-8c0-4.824.223-5.929 5.125-6.125"/><path fill="#113C5C" d="M62 66h1l.402 3.438.535 4.562.264 2.254Q65.07 83.63 66 91c-3.005-1.503-2.972-3.917-4-7l-2-1z"/><path fill="#769C9B" d="m89 41 3 1-1.375 1.25C88.94 45.064 88.007 46.753 87 49v-4l-2 5-4-1-1-4 1.715-.621 2.222-.816 2.215-.81c1.831-.607 1.831-.607 2.848-1.753"/><path fill="#508F7C" d="M194.125 28.563C197 29 197 29 200 31l-1 6h-1l-1-5c-3.05-1.011-3.05-1.011-6 0a109 109 0 0 0-1 7c-3-1-3-1-4-2.75 0-2.25 0-2.25 2.063-5C191 29 191 29 194.125 28.563"/><path fill="#0B4A6A" d="m173.547 120.902 2.558.01 2.645.025 2.691.014q3.28.018 6.559.049v1c-4.334.63-8.372 1.035-12.75.875-3.864-.073-5.218.72-8.25 3.125-3.25-.312-3.25-.312-6-1 4.115-3.38 7.284-4.133 12.547-4.098"/><path fill="#1F4066" d="M15 103c4.136 3.381 7.813 6.666 11 11l-3 1-2-1v-3h-5c-.597-2.763-1-5.16-1-8"/><path fill="#234D6D" d="M45 95h19c-3 3-3 3-5.27 3.363-4.951-.099-9.09-.41-13.73-2.363z"/><path fill="#2D796A" d="M208 84c1.478 2.957 1.06 5.742 1 9l-2 1-3-6-7 3v-3a875 875 0 0 1 4.375-2l2.46-1.125C206 84 206 84 208 84"/><path fill="#406160" d="M154 57c1.993 1.888 3.437 3.642 5 5.938 3.514 4.362 8.811 5.517 14 7.062v1c-6.623-.165-11.17-1.315-16-6-2.229-3.02-3-4.241-3-8"/><path fill="#9BC1CA" d="m49 35 3 1v2c2.473-.344 2.473-.344 5-1l1-2h3l-1 4h-2l-2 4-1-2h-5z"/><path fill="#2B4D56" d="M57 29c1.813.125 1.813.125 4 1 3 5.036 3 5.036 3 8h-2l-1 4-2-1 2-6h-3l-2 4-4-1 1-2h3l1-2h3c-.776-3.075-.776-3.075-3-5"/><path fill="#174259" d="m175.625 119.438 2.43.158q2.973.196 5.945.404v1l-2.93.113c-7.136.36-13.378.86-20.117 3.461L159 125l-3-2 1.898-.621 2.477-.817 2.46-.808c4.555-1.587 7.933-1.66 12.79-1.317"/><path fill="#597B86" d="m113 105 9 2-3 1v6l-4 2-1-7h3v-2h-4z"/><path fill="#DDF2F1" d="m105 31 1 3c2 1.209 2 1.209 4 2h-2v5h-2v-2l-5-1c.564-3.27 1.5-4.826 4-7"/><path fill="#DFF6FB" d="m67 30 7 2c0 3 0 3-1.187 4.75C71 38 71 38 68.313 37.688L66 37z"/><path fill="#124D66" d="m97 52 3 1a91 91 0 0 1-4 4h-2c-1.224 2.075-1.224 2.075-1 5l-2 2h-3c.608-5.47.608-5.47 2.25-7.687C92.445 54.666 94.54 53.23 97 52"/><path fill="#185A79" d="m83 28 3 1v2l2 1-3.125.875c-2.446.69-4.79 1.453-7.187 2.313C75 36 75 36 73 35l1-3h2l1-2 1 3h2l1-3h2z"/><path fill="#DCF7F6" d="M134 74c1.063 1.875 1.063 1.875 2 4l-1 2c-.22 1.591-.39 3.19-.535 4.79l-.264 2.85-.263 2.985-.276 3.008q-.336 3.682-.662 7.367h-1c-.058-3.562-.094-7.125-.125-10.687l-.05-3.053-.02-2.96-.032-2.713c.25-2.849 1.047-4.996 2.227-7.587"/><path fill="#76A69F" d="m180 69 1 5c-2.375.625-2.375.625-5 1l-2-2a89 89 0 0 0-4-2c6.625-3.125 6.625-3.125 10-2"/><path fill="#DAEFE9" d="M185 26h4v2h7v1l-3.375.813c-3.843.845-3.843.845-5.625 4.187-.167 3.125-.167 3.125 0 6h-2z"/><path fill="#677C8B" d="m32 94 2 1 .438 2.375c.616 2.876 1.34 3.789 3.562 5.625-4.246 0-6.385-1.818-10-4 .313-1.937.313-1.937 1-4z"/><path fill="#DBF0EF" d="M191 78c2.629 1.522 4.844 2.844 7 5v3h2l1-2 1 3-6 2-.25-1.875c-.563-2.31-.563-2.31-2.812-3.375L191 83z"/><path fill="#274F70" d="M28 31c-4.538 3.782-4.538 3.782-7.25 5.063-2.11.872-2.11.872-2.75 3.937l-3-1 1-3 2-1v-2c3.402-2.094 6.053-2.18 10-2"/><path fill="#F5FBFB" d="M152 99v4h-2l-1 5-3 1c-.227-3.328-.322-5.418 1.313-8.375C149 99 149 99 152 99"/><path fill="#799FA0" d="M111 70c2.5.313 2.5.313 5 1l1 2-2 3c-3.125.188-3.125.188-6 0 .875-4.875.875-4.875 2-6"/><path fill="#ABCED6" d="M60 31v3h-3l-1 3h-3l1-4-4-1c6.286-2.429 6.286-2.429 10-1"/><path fill="#1F5768" d="M119 22c2 2 2 2 2 5l2.117.184 2.758.253 2.742.247C131 28 131 28 133 29l-1 3-4.812-1.437-2.708-.81A216 216 0 0 1 119 28z"/><path fill="#1B4F6C" d="M67 25c3.795.393 5.51 2.243 8 5l-1 2-7-2c-.562-1.937-.562-1.937-1-4z"/><path fill="#5A7188" d="M20 70v3l2 2c-6.625 2.125-6.625 2.125-10 1v-5c2.892-.826 4.887-1 8-1"/><path fill="#CFEBEC" d="M110 40h5l-1.5 1.375c-1.726 1.501-1.726 1.501-1.5 3.625l2 2-11 1 4-5 3 1z"/><path fill="#286476" d="m140 49 3 1c.223 2.082.428 4.166.625 6.25l.352 3.516c.023 3.173-.28 4.617-1.977 7.234-1.983-5.948-2.109-11.8-2-18"/><path fill="#135369" d="m124 50 1 3-12.375-2.062-3.21-.536L107 50v-1c6.164-.918 11.177-1.478 17 1"/><path fill="#D4EDEC" d="M89 41c-2 3-2 3-5.125 3.688L81 45l-1 7h-1l-1-8c3.514-3.374 6.26-3.273 11-3"/><path fill="#F6FDFD" d="m165 42 6 1-3 1v2l-2 2v2l-5-1v-3h2z"/><path fill="#8BA0AE" d="M44 107h2l1 5 5-1 1 3c-3.088 1.765-4.233 2-8 2l-2-2h2z"/><path fill="#D9EBF1" d="M30 70h1l1 9-6-1-3 4c.875-4.75.875-4.75 2-7h4z"/><path fill="#BCD5D1" d="m175 32 7 1v4c-1.437.081-2.874.14-4.312.188l-2.426.105c-2.74-.355-3.554-1.187-5.262-3.293h5z"/><path fill="#083968" d="m78 110 2 2h-2l-2 4-3-1zm-7 6 2 1a318 318 0 0 1-5 6h-1v-5c1.875-1.062 1.875-1.062 4-2"/><path fill="#2F697E" d="M212 86h1l1 9h2l-3 10c-2.188-4.376-2.066-7.082-1.625-11.75l.172-2.113c.14-1.713.295-3.425.453-5.137"/><path fill="#104B5E" d="M210 78h2a486 486 0 0 1 2.125 6.75l1.195 3.797C216 92 216 92 215.117 94.453L214 96h-1c-.2-1.32-.2-1.32-.402-2.668l-.536-3.52-.527-3.48A181 181 0 0 0 210 78"/><path fill="#108175" d="M152 49h5v5l-6 1-2-3h2z"/><path fill="#DFF6F4" d="m163 39 2 1c-.506 2.169-1 4-2 6h-2l-1 3-2-2c.253-3.789 2.278-5.542 5-8"/><path fill="#0C3B5D" d="M101 124h17c-3.904 1.952-5.792 2.123-10.027 2.004-2.418-.005-4.632.41-6.973.996z"/><path fill="#D5E8EC" d="M119 109c1.063 1.813 1.063 1.813 2 4l-1 3 4 1-5 1-1 4c-2-3-2-3-2-7l2-1c.656-2.527.656-2.527 1-5"/><path fill="#DFF2F6" d="m136 107 3 1c-1 3-1 3-3.215 4.422l-2.722 1.328-2.715 1.36L128 116l-2-1 2.75-1.75c2.77-1.918 4.97-3.794 7.25-6.25"/><path fill="#F1FAFC" d="m91 107 7 1v5h-4v-2l-2-1v2h-6l4-1z"/><path fill="#6D8291" d="m23 64 1 3 5 1-1 3h-1v3h-2v-4h-2v3h-2v-4l2-1z"/><path fill="#CFEEF4" d="m129 46 2 1-3 5q-2.159-.68-4.312-1.375l-2.426-.773C119 49 119 49 116 47l1.828.29c.8.11 1.599.22 2.422.335l2.39.352c2.694.026 4.015-.744 6.36-1.977"/><path fill="#E3FBF9" d="M155 39c1 3 1 3 1 6l-2.437.875c-2.696.858-2.696.858-3.563 3.125l-4-1 4-2v-3h3z"/><path fill="#103959" d="M78 108c4.11 1.45 7.433 3.511 11 6l-2 3-3-1-.937-1.937C81.766 111.545 80.578 111.03 78 110z"/><path fill="#135066" d="M188 95c-.812 1.938-.812 1.938-2 4-3.427 1.142-5.611.909-9.187.563l-3.293-.31L171 99v-1l2.012-.148C178.054 97.425 183.235 95 188 95"/><path fill="#2A4661" d="M17 75c3.625-.187 3.625-.187 7 0 0 3 0 3-1 5l-8-2z"/><path fill="#D2E3EC" d="M15 62v4l2 2-3 2-.375-1.937L13 66c-2.49-1.245-3.41-.777-6 0v-3c2.928-.976 4.956-1.082 8-1"/><path fill="#7E9BA1" d="m152 110 2 2c1.988.398 3.99.738 6 1v4h-2v-3h-2l-1 3h-2v-3h-3v-2h2z"/><path fill="#96AEB8" d="M81 92c1.938.688 1.938.688 4 2 .75 2.625.75 2.625 1 5l-3 1-2-1c-.687-3-.687-3-1-6z"/><path fill="#BDDEE7" d="m78 69 2 2c-.25 2.563-.25 2.563-1 5l-2 1v-5l-4-1-2 3v-5c2.706-1.353 4.133-.788 7 0"/><path fill="#194F64" d="m97 26 1 2a345 345 0 0 1-3.75 1.5l-2.11.844C90 31 90 31 86 31c.71-1.953.71-1.953 2-4 2.164-.61 2.164-.61 4.625-.75l2.477-.172z"/><path fill="#14456B" d="M92 117c3.625.375 3.625.375 7 1l1 7h-3l-.687-2.437L95 120c-2.548-.894-2.548-.894-5-1z"/><path fill="#DDF2F1" d="M155 62q1.688 1.436 3.375 2.875l1.898 1.617A76 76 0 0 1 164 70c-3.133 1.044-3.99.934-7 0v-2h-2z"/><path fill="#D0ECEE" d="M144 43c1.563 1.563 1.563 1.563 3 4-.312 3.75-.312 3.75-1 7h-3c-.125-7.625-.125-7.625 1-11"/><path fill="#BBD5DF" d="m91 105 13 2v2c-1.604.054-3.208.093-4.812.125l-2.708.07C94 109 94 109 91 107zm-2 2 2 1-2 1z"/><path fill="#1F635B" d="m206 95 1 3c-1.5 2-1.5 2-4 4-2.759.358-5.201.187-8 0l4-4v2c3.653-1.25 4.78-1.671 7-5"/><path fill="#DEF7F5" d="M199 79c2.938 1.313 2.938 1.313 6 3l1 3-5 1c-1.562-1.812-1.562-1.812-3-4z"/><path fill="#195A70" d="M143 63c3.254 2.834 4.52 4.686 5 9l-1.875-.562c-2.167-.675-2.167-.675-4.125.562z"/><path fill="#E0F5F8" d="M183 43v1l-2.703.332-3.547.48-3.516.458c-3.218.726-4.817 1.547-7.234 3.73v-3h2v-2c4.948-2.804 9.617-1.774 15-1"/><path fill="#224062" d="M33.938 110.125 36 111l2.75 1.063L41 113l-2 2-3.25-1.062c-4.004-1.005-4.004-1.005-7.75.062 3.425-4.037 3.425-4.037 5.938-3.875"/><path fill="#CEEDED" d="m189 91 4 2v8h-2l-1-4-4 2 2-3a75 75 0 0 0 1-5"/><path fill="#F7FBFB" d="m192 82 5 2v2h-2v2h-5c.875-4.875.875-4.875 2-6"/><path fill="#D1EFEA" d="m167 36-1.645.988-2.167 1.325-2.145 1.3C159.11 40.925 157.586 42.294 156 44l-1-3c1.375-1.5 1.375-1.5 3-3h2v-2c3.133-1.044 3.99-.934 7 0"/><path fill="#075D76" d="m125 24 10 4v4l-3-1 1-2-8-2z"/><path fill="#486C7D" d="M101 111h9v2l3 1h-7v2l-5-1z"/><path fill="#496C6D" d="M194 102c1.945-.293 1.945-.293 4.125-.187L202 102v1l-3.187.75c-3.647 1.017-5.905 2.826-8.813 5.25h-3v-2l2.375-.812c2.906-1.036 2.906-1.036 4.625-4.188"/><path fill="#F5FCFC" d="M56 99h7l1 2-1 2c-2.562.625-2.562.625-5 1v-3h-2z"/><path fill="#337B6F" d="M192 94c3.106 0 4.353.54 7 2l-6 5z"/><path fill="#DDF1F1" d="M111 31c3 1.813 3 1.813 6 4v3l-7 1 3-1c.733-2.015.733-2.015 1-4l-4-1z"/><path fill="#CDE0E8" d="M100 111c2 3.75 2 3.75 2 6h-2v5l-.812-1.875C98.044 117.7 98.044 117.7 95 116l4-1z"/><path fill="#1B2E40" d="m27 93 5 1-3 2v3l3 1v2l-5-1c-.8-3.287-1.097-4.71 0-8"/><path fill="#3E4E58" d="M75 80c3.43 3.756 4.564 8.235 6 13h-2c-.676-1.412-1.34-2.83-2-4.25l-1.125-2.39C75 84 75 84 75 80"/><path fill="#4C647A" d="m63 107 2 1v5l-4 1-1-3 2-1-2-2z"/><path fill="#DBF1F5" d="M149 97c0 3 0 3-2 6-.39 1.99-.732 3.99-1 6h-2c-.353-2.968-.542-5.156 1.113-7.734 1.242-1.47 2.56-2.873 3.887-4.266"/><path fill="#D7EAEC" d="M195 104c2.125.375 2.125.375 4 1l-2.312 1.313c-2.64 1.506-2.64 1.506-4.25 3.312-1.774 1.696-3.006 2.14-5.438 2.375l-2-2 1.68-.805 2.195-1.07 2.18-1.055c2.096-1.036 2.096-1.036 3.945-3.07"/><path fill="#1E4C61" d="M99 103h13l-1 3h-7v-2h-5z"/><path fill="#073260" d="m5 82 6 2v2h2l-1 4v-3H5z"/><path fill="#CAE7ED" d="M150 71c4.444 1.133 8.264 2.283 12 5v2c-4.609-1.317-8.141-3.152-12-6z"/><path fill="#405A60" d="m129 102 2 2c-4.554 2.666-7.74 3.316-13 3 2.502-1.668 4.411-2.624 7.188-3.625.715-.26 1.43-.52 2.167-.79.543-.192 1.086-.386 1.645-.585"/><path fill="#DFEEF1" d="m40 41 3 1-5 5-4-2c2.813-2.062 2.813-2.062 6-4"/><path fill="#24697A" d="M132 32c3.044-.082 5.072.024 8 1v5c-3 0-3 0-4.387-1.312z"/><path fill="#276179" d="M97 21h5l-2 1c-.658 3.03-.658 3.03-1 6l-5-1z"/><path fill="#2F737D" d="m190.188 20.875 3.292.055L196 21v1q-2.155.505-4.312 1l-2.426.563c-3.197.618-5.154.473-8.262-.563 3.527-2.351 5.029-2.214 9.188-2.125"/><path fill="#84B3C7" d="M111 105h2v2h4v2h-4v3h-2z"/><path fill="#114F66" d="M156.25 91.75 159 92l1 2-11 2c2.41-2.967 3.347-3.95 7.25-4.25"/><path fill="#254260" d="M15 86c1.991 2.986 2.941 5.597 4 9l-3 3c-.982-4.053-1.082-7.839-1-12"/><path fill="#577583" d="M81 73c1 3 1 3 0 6a70 70 0 0 1-4 1l-1 2-1-3 2.438-1.875c2.6-1.867 2.6-1.867 3.562-4.125"/><path fill="#0D3C66" d="M33 74c3 2 3 2 3.512 3.945L37 84l-.812-1.937C35.113 79.669 35.113 79.669 32 79z"/><path fill="#1F5A67" d="m167 55 1.688.875c2.397 1.166 4.828 2.159 7.312 3.125v2c-3.788-.526-6.172-1.381-9-4z"/><path fill="#D0E7E6" d="m87 49 1 2-3 3-3-1-.312 1.875C81 57 81 57 78 59c1.875-4.75 1.875-4.75 3-7a125 125 0 0 1 5-2z"/><path fill="#2C5552" d="M85 45h2c.125 2.375.125 2.375 0 5l-2 2c-2.625-.375-2.625-.375-5-1v-5l2 3h3z"/><path fill="#0C486D" d="M61 48h6l-2 8-1-4c-1.984-1.284-1.984-1.284-4-2z"/><path fill="#4B746F" d="m161 38 2 2c-5.094 5.882-5.094 5.882-8.875 6.375L152 46l1.688-.625c3.237-1.925 4.994-4.414 7.312-7.375"/><path fill="#184462" d="M12 39h5l-1 8-3-1z"/><path fill="#EFFDFD" d="m202 28 4 3-1 5-3-1z"/><path fill="#074970" d="m132 118-4.375 2.438-2.46 1.37Q123.103 122.946 121 124c2.005-5.286 5.542-7.707 11-6"/><path fill="#0E385B" d="M41 89c2.938 1.313 2.938 1.313 6 3l1 3h-5c-2-3.75-2-3.75-2-6"/><path fill="#3C887E" d="m157 49 2 2-1 2h2l2-4c1 1 1 1 1.063 3.563L163 55l-6-1z"/><path fill="#D8EBF1" d="M73 43c1 2 1 2 .875 4.438C73 50 73 50 70.438 51.812L68 53c1.335-3.594 2.96-6.755 5-10"/><path fill="#233A48" d="m28 44 3 1-.875 1.688C28.959 49.085 27.966 51.516 27 54c-1.381-2.763-1.19-4.947-1-8z"/><path fill="#DBF5F8" d="M120 29c8.571.714 8.571.714 12 4a212 212 0 0 1-4.312-.312l-2.426-.176c-2.625-.594-3.57-1.47-5.262-3.512"/><path fill="#E0F4F5" d="m187 103 5 2c-2.36 2.36-3.779 2.491-7 3 .875-3.875.875-3.875 2-5"/><path fill="#3A6E7D" d="m167 96-2 2-1.562-.937c-3.105-1.354-6.09-1.677-9.438-2.063v-1c5.473-1.468 8.12-.44 13 2"/><path fill="#EFFCFD" d="M174 63h4l1 4-5 1z"/><path fill="#F1FDFE" d="m197 42 5 1-1 4-5 1 2-3z"/><path fill="#EBF7F6" d="m68 33 4 2-1 3-5-1z"/><path fill="#A3B5B9" d="M152 101h3c-.573 2.867-.861 3.861-3 6l-2-1v-3h2z"/><path fill="#99B2B2" d="M161 101h2v2h2l-2 4-3-2z"/><path fill="#0A486A" d="M95 90h3v2h5v3c-3.242-.35-4.615-.562-6.812-3.062z"/><path fill="#C7E6E7" d="m209 79 2 1c.625 2.563.625 2.563 1 5l-4 1v-2l-2-1h3z"/><path fill="#DBE9EF" d="m42 31-1 4c-2.375.625-2.375.625-5 1l-2-2c5.75-3 5.75-3 8-3"/><path fill="#144C5C" d="m160 109 1 3c-1 1-1 1-4.062 1.063L154 113v-3l6 1z"/><path fill="#DEF5F8" d="m164 97 7 3-4 3c-1.5-1.312-1.5-1.312-3-3z"/><path fill="#3C7A6C" d="M207 84c2 2 2 2 2.125 5.625L209 93l-2 1c-1.238-3.576-.75-6.337 0-10"/><path fill="#ADD6D1" d="m196 82 2 1v3h2l1-2 1 3-6 2z"/><path fill="#253D58" d="m17 67 8 1v1l-11 2z"/><path fill="#073864" d="M36 66v6l-3 1v-6c2-1 2-1 3-1"/><path fill="#D3F0EF" d="M164 53v3l-2.875.875c-3.177.893-3.177.893-5.125 3.125l-1-4 3.375-.375c3.656-.272 3.656-.272 5.625-2.625"/><path fill="#6D9E93" d="M191 40h8l-3 1-1 3h-3z"/><path fill="#377A65" d="m199 33 3 2-1 5-3-1z"/><path fill="#AED2DA" d="m49 35 3 1v2h2v3h-4z"/><path fill="#D5EDED" d="M96 34c2.063.438 2.063.438 4 1-2 3-2 3-4.125 3.688L94 39c.875-3.875.875-3.875 2-5"/><path fill="#0B466C" d="m118 124 2 2c-1 1-1 1-3.285 1.098l-2.778-.035-2.785-.028L109 127v-1c1.455-.39 2.914-.76 4.375-1.125l2.46-.633z"/><path fill="#DFF4F7" d="m190 96 1 2c-2.395 2.9-4.312 3.502-8 4l-1-2 3.438-1.437c3.32-1.2 3.32-1.2 4.562-2.563"/><path fill="#405C6B" d="M69 75c2 0 2 0 3.625 1.375C74 78 74 78 74 80l-5-1z"/><path fill="#285466" d="m83 32 2 1-8 6c1-4 1-4 3.438-5.812z"/><path fill="#F2FDFE" d="m109 33 5 1-1 4h-3z"/><path fill="#CDEFF3" d="m202 25 5 5-1 2-3-2v-2l-2-1z"/></svg>